<svg width="234" height="40" viewBox="0 0 234 40" fill="none" xmlns="http://www.w3.org/2000/svg">
<path fill-rule="evenodd" clip-rule="evenodd" d="M94.9239 11.4377C94.9239 14.748 96.0846 17.4024 98.4059 19.4008C100.747 21.3991 104.017 22.3983 108.216 22.3983C112.414 22.3983 115.674 21.3991 117.996 19.4008C120.337 17.4024 121.508 14.748 121.508 11.4377C121.508 8.12728 120.337 5.47291 117.996 3.47457C115.674 1.47622 112.414 0.477051 108.216 0.477051C104.017 0.477051 100.747 1.47622 98.4059 3.47457C96.0846 5.47291 94.9239 8.12728 94.9239 11.4377ZM98.739 11.4377C98.739 9.13654 99.5666 7.25931 101.222 5.80597C102.877 4.33244 105.208 3.59568 108.216 3.59568C111.224 3.59568 113.555 4.33244 115.21 5.80597C116.865 7.25931 117.693 9.13654 117.693 11.4377C117.693 13.7388 116.865 15.6261 115.21 17.0996C113.555 18.553 111.224 19.2796 108.216 19.2796C105.208 19.2796 102.877 18.553 101.222 17.0996C99.5666 15.6261 98.739 13.7388 98.739 11.4377ZM57.6714 0.840385C60.0331 0.840385 61.9406 1.40557 63.394 2.53595C64.8473 3.66633 65.574 5.31143 65.574 7.47125C65.574 9.65126 64.8675 11.2863 63.4545 12.3763C62.0416 13.4461 60.1139 13.981 57.6714 13.981H47.5586V22.0349H43.7436V0.840385H57.6714ZM57.4898 10.9835C58.8018 10.9835 59.8414 10.6908 60.6084 10.1054C61.3754 9.49988 61.759 8.62181 61.759 7.47125C61.759 6.34088 61.3754 5.47291 60.6084 4.86735C59.8414 4.26179 58.8018 3.95901 57.4898 3.95901H47.5586V10.9835H57.4898ZM88.2621 22.0349L79.9962 13.6782H73.6378V22.0349H69.8228V0.840385H84.0837C86.4454 0.840385 88.3529 1.40557 89.8063 2.53595C91.2596 3.64614 91.9863 5.25087 91.9863 7.35014C91.9863 9.42923 91.3101 10.9936 89.9577 12.0432C88.6052 13.0727 86.7583 13.6076 84.4168 13.648L93.1368 22.0349H88.2621ZM73.6378 3.89846V10.7413H83.9021C85.2141 10.7413 86.2537 10.4486 87.0207 9.86321C87.7877 9.27784 88.1712 8.44015 88.1712 7.35014C88.1712 6.26014 87.7776 5.41235 86.9904 4.8068C86.2234 4.20124 85.1939 3.89846 83.9021 3.89846H73.6378ZM125.884 0.840385H145.202V3.95901H129.699V10.166H142.234V13.2543H129.699V22.0349H125.884V0.840385ZM153.206 0.840385H149.391V22.0349H153.206V0.840385ZM156.943 3.95901V0.840385H179.469V3.95901H170.114V22.0349H166.298V3.95901H156.943ZM180.938 11.4377C180.938 14.748 182.099 17.4024 184.42 19.4008C186.762 21.3991 190.032 22.3983 194.23 22.3983C198.429 22.3983 201.689 21.3991 204.01 19.4008C206.351 17.4024 207.522 14.748 207.522 11.4377C207.522 8.12728 206.351 5.47291 204.01 3.47457C201.689 1.47622 198.429 0.477051 194.23 0.477051C190.032 0.477051 186.762 1.47622 184.42 3.47457C182.099 5.47291 180.938 8.12728 180.938 11.4377ZM184.753 11.4377C184.753 9.13654 185.581 7.25931 187.236 5.80597C188.891 4.33244 191.223 3.59568 194.23 3.59568C197.238 3.59568 199.569 4.33244 201.224 5.80597C202.88 7.25931 203.707 9.13654 203.707 11.4377C203.707 13.7388 202.88 15.6261 201.224 17.0996C199.569 18.553 197.238 19.2796 194.23 19.2796C191.223 19.2796 188.891 18.553 187.236 17.0996C185.581 15.6261 184.753 13.7388 184.753 11.4377ZM230.035 0.840385H234.001L224.009 22.0349H218.347L208.446 0.840385H212.504L221.224 20.1577L230.035 0.840385ZM143.275 34.4546C143.341 35.1589 143.742 35.7256 144.48 36.1548C145.228 36.584 146.284 36.7986 147.649 36.7986C148.76 36.7986 149.69 36.6665 150.439 36.4024C151.187 36.1383 151.561 35.7201 151.561 35.1479C151.561 34.4216 150.807 33.8933 149.3 33.5632L145.371 32.6718C143.049 32.1656 141.888 31.1477 141.888 29.6181C141.888 28.8918 142.141 28.281 142.647 27.7858C143.154 27.2906 143.797 26.9384 144.579 26.7294C145.371 26.5093 146.268 26.3992 147.269 26.3992C148.942 26.3992 150.307 26.7073 151.363 27.3236C152.431 27.9289 153.03 28.7872 153.162 29.8987L151.198 29.9812C151.121 29.398 150.73 28.9138 150.026 28.5286C149.322 28.1434 148.375 27.9509 147.187 27.9509C146.229 27.9509 145.454 28.0884 144.859 28.3635C144.265 28.6276 143.968 29.0073 143.968 29.5025C143.968 30.2398 144.694 30.768 146.147 31.0872L149.877 31.896C151.165 32.1711 152.111 32.5508 152.717 33.035C153.333 33.5082 153.641 34.163 153.641 34.9993C153.641 36.1108 153.107 36.9471 152.04 37.5084C150.983 38.0696 149.52 38.3502 147.649 38.3502C145.668 38.3502 144.139 38.0256 143.06 37.3763C141.993 36.716 141.409 35.7641 141.31 34.5206L143.275 34.4546ZM50.9973 26.5973C52.2848 26.5973 53.3247 26.9054 54.1171 27.5217C54.9094 28.1379 55.3056 29.0348 55.3056 30.2123C55.3056 31.4008 54.9204 32.2922 54.1501 32.8864C53.3798 33.4697 52.3288 33.7613 50.9973 33.7613H45.484V38.1521H43.4041V26.5973H50.9973ZM50.8982 32.1271C51.6135 32.1271 52.1803 31.9675 52.5984 31.6484C53.0166 31.3183 53.2257 30.8396 53.2257 30.2123C53.2257 29.5961 53.0166 29.1229 52.5984 28.7927C52.1803 28.4626 51.6135 28.2975 50.8982 28.2975H45.484V32.1271H50.8982ZM67.1375 38.1521L65.784 35.3625H58.1248L56.7712 38.1521H54.6913L60.4027 26.5973H63.5555L69.2834 38.1521H67.1375ZM65.0081 33.7778L61.9544 27.4887L58.9006 33.7778H65.0081ZM76.7252 33.5962L81.2316 38.1521H83.8892L79.1352 33.5797C80.4117 33.5577 81.4187 33.2661 82.156 32.7048C82.8933 32.1326 83.2619 31.2798 83.2619 30.1463C83.2619 29.0018 82.8658 28.1269 82.0734 27.5217C81.2811 26.9054 80.2412 26.5973 78.9536 26.5973H71.1789V38.1521H73.2588V33.5962H76.7252ZM73.2588 31.9951V28.2645H78.8546C79.5589 28.2645 80.1201 28.4296 80.5383 28.7597C80.9675 29.0898 81.1821 29.552 81.1821 30.1463C81.1821 30.7405 80.973 31.1972 80.5548 31.5164C80.1366 31.8355 79.5699 31.9951 78.8546 31.9951H73.2588ZM84.2424 28.2975V26.5973H96.5236V28.2975H91.4229V38.1521H89.3431V28.2975H84.2424ZM111.41 26.5973H109.396V37.0627L102.1 26.5973H98.5507V38.1521H100.548V27.6868L107.844 38.1521H111.41V26.5973ZM114.542 38.1521V26.5973H125.37V28.2315H116.622V31.4998H123.538V33.0515H116.622V36.5179H125.7V38.1521H114.542ZM133.629 33.5962L138.135 38.1521H140.793L136.039 33.5797C137.315 33.5577 138.322 33.2661 139.06 32.7048C139.797 32.1326 140.166 31.2798 140.166 30.1463C140.166 29.0018 139.769 28.1269 138.977 27.5217C138.185 26.9054 137.145 26.5973 135.857 26.5973H128.083V38.1521H130.162V33.5962H133.629ZM130.162 31.9951V28.2645H135.758C136.463 28.2645 137.024 28.4296 137.442 28.7597C137.871 29.0898 138.086 29.552 138.086 30.1463C138.086 30.7405 137.877 31.1972 137.458 31.5164C137.04 31.8355 136.474 31.9951 135.758 31.9951H130.162ZM16.3181 4.96849H21.7189C23.6372 4.96849 25.1521 5.48517 26.2636 6.52742C27.3833 7.56076 27.9349 8.95934 27.9349 10.7232C27.9349 11.5962 27.7949 12.389 27.5232 13.0838C27.9514 14.3844 28.1654 15.7919 28.1654 17.2885C28.1654 17.7873 28.1407 18.2773 28.0913 18.7583C29.2851 17.9833 30.2402 16.9945 30.9482 15.7741C31.8044 14.3131 32.2243 12.6295 32.2243 10.7232C32.2243 8.81681 31.7962 7.13317 30.9482 5.67224C30.092 4.2113 28.8899 3.06215 27.3257 2.2426C25.7614 1.42305 23.9336 1.00437 21.8342 1.00437H6.51246V4.94177H15.3383C15.6676 4.94177 15.997 4.95068 16.3181 4.96849ZM6.66039 16.5753V20.4147H15.2146C16.5236 20.4058 17.5198 20.094 18.1784 19.4794C18.5654 19.123 19.0017 18.544 19.0017 17.2791C19.0017 16.9673 18.9771 16.8069 18.9277 16.5753H6.66039ZM20.8297 25.7595C19.2736 26.588 17.4376 26.9978 15.3382 26.9978H4.21533V39.5137H0V7.56018H15.3217C17.4212 7.56018 19.2489 7.97886 20.8132 8.79841C22.3775 9.61796 23.5795 10.7671 24.4357 12.2281C25.0038 13.2079 25.3825 14.2769 25.5719 15.4439C25.6213 15.729 25.6542 16.0229 25.6789 16.3258V16.3882C25.6818 16.4309 25.6856 16.4727 25.6893 16.5141L25.6893 16.5141L25.6893 16.5142L25.6893 16.5143C25.6965 16.5935 25.7036 16.6715 25.7036 16.7534V16.8514C25.7119 17.0028 25.7119 17.1454 25.7119 17.2879V17.6442C25.7036 17.7066 25.7036 17.7778 25.7036 17.8402V17.9916C25.7036 18.0362 25.6995 18.0829 25.6954 18.1297L25.6954 18.1297C25.6913 18.1765 25.6872 18.2233 25.6872 18.2678V18.3301L25.6854 18.3536L25.6854 18.3537C25.6777 18.4539 25.6695 18.5606 25.6542 18.6597C25.4896 20.0049 25.0944 21.2342 24.4522 22.3299C23.596 23.7908 22.3939 24.94 20.8297 25.7595ZM4.21533 23.0425V11.5154H15.2065C17.1248 11.5154 18.6397 12.0321 19.7511 13.0743C20.6897 13.9473 21.2331 15.0787 21.3813 16.4594C21.3977 16.5841 21.406 16.7089 21.4142 16.8336V16.8781C21.4142 16.9438 21.4162 17.0073 21.4182 17.0719L21.4182 17.072C21.4203 17.1387 21.4224 17.2066 21.4224 17.279V17.2799C21.4224 17.422 21.4224 17.5465 21.4142 17.6798V17.7867C21.4142 17.858 21.4069 17.9293 21.3996 18.0005L21.3996 18.0007C21.3959 18.0363 21.3923 18.0719 21.3895 18.1074C21.3895 18.1342 21.3895 18.1609 21.3813 18.1876L21.3758 18.229C21.3611 18.3416 21.3456 18.4596 21.3236 18.5707C21.3236 18.5885 21.3236 18.6063 21.3154 18.6241C21.3072 18.6597 21.2999 18.6953 21.2926 18.7309L21.2925 18.7309L21.2925 18.731C21.2779 18.8023 21.2633 18.8735 21.2413 18.9448C21.2413 18.9582 21.2372 18.9715 21.2331 18.9849C21.229 18.9982 21.2248 19.0116 21.2248 19.025C21.159 19.2655 21.0849 19.506 20.9861 19.7287C20.9861 19.7465 20.9696 19.7643 20.9614 19.7733C20.9202 19.8802 20.8708 19.9781 20.8214 20.0761C20.8214 20.085 20.8132 20.094 20.805 20.1029C20.7473 20.2187 20.6897 20.3256 20.6238 20.4325C20.3851 20.8155 20.1052 21.1629 19.7594 21.4747C18.6397 22.5081 17.1248 23.0336 15.2147 23.0336H10.7194L8.15073 23.0425H4.21533ZM6.66039 29.626H10.7193V39.523H6.66039V29.626Z" fill="white"/>
</svg>
